<?xml version="1.0" standalone="no"?><svg xmlns="http://www.w3.org/2000/svg" viewBox="0 0 1440 320"><path fill="#329f9a" fill-opacity="0.2" d="M0,224L34.3,234.7C68.6,245,137,267,206,272C274.3,277,343,267,411,245.3C480,224,549,192,617,154.7C685.7,117,754,75,823,96C891.4,117,960,203,1029,208C1097.1,213,1166,139,1234,112C1302.9,85,1371,107,1406,117.3L1440,128L1440,0L1405.7,0C1371.4,0,1303,0,1234,0C1165.7,0,1097,0,1029,0C960,0,891,0,823,0C754.3,0,686,0,617,0C548.6,0,480,0,411,0C342.9,0,274,0,206,0C137.1,0,69,0,34,0L0,0Z"></path></svg>